<svg xmlns="http://www.w3.org/2000/svg" viewBox="0 0 64 64"><defs><linearGradient id="g" x1="0" y1="0" x2="1" y2="1"><stop offset="0" stop-color="#182152"/><stop offset="1" stop-color="#3b3b92"/></linearGradient></defs><rect width="64" height="64" rx="14.5" fill="url(#g)"/><g transform="translate(14 13.5) scale(1.125)" fill="none" stroke="#f0c34e" stroke-width="2.1" stroke-linecap="round" stroke-linejoin="round"><path d="M10.8 30 C10.8 24.8 21.2 23 21.2 16.6 C21.2 13.8 22.6 12 24.2 10.6"/><path d="M21.2 30 C21.2 24.8 10.8 23 10.8 16.6 C10.8 13.8 9.4 12 7.8 10.6"/><path d="M16 22.4L16 8.6 M11 15.6L6.2 14.4 M21 15.6L25.8 14.4 M16 15L12.6 11.6 M16 15L19.4 11.6"/><g fill="#f0c34e" stroke="none"><circle cx="16" cy="5.8" r="2.9"/><circle cx="6.9" cy="9.4" r="2.4"/><circle cx="25.1" cy="9.4" r="2.4"/><circle cx="4.4" cy="14" r="1.7"/><circle cx="27.6" cy="14" r="1.7"/><circle cx="11.6" cy="10.6" r="1.5"/><circle cx="20.4" cy="10.6" r="1.5"/></g></g></svg>
